<?xml version="1.0" standalone="no"?>
<!DOCTYPE svg PUBLIC "-//W3C//DTD SVG 20010904//EN"
 "http://www.w3.org/TR/2001/REC-SVG-20010904/DTD/svg10.dtd">
<svg version="1.0" xmlns="http://www.w3.org/2000/svg"
 width="186.000000pt" height="230.000000pt" viewBox="0 0 186.000000 230.000000"
 preserveAspectRatio="xMidYMid meet">

<g transform="translate(0.000000,230.000000) scale(0.100000,-0.100000)"
fill="#000000" stroke="none">
<path d="M781 2214 c-77 -21 -140 -69 -174 -134 -26 -50 -29 -62 -25 -135 5
-94 25 -140 92 -209 57 -58 196 -149 341 -223 124 -62 125 -59 10 18 -101 67
-169 130 -203 189 -23 38 -27 57 -27 121 0 63 4 81 24 111 56 81 137 111 306
112 126 1 217 -15 311 -54 l49 -20 -52 48 c-96 88 -232 151 -380 177 -106 19
-201 18 -272 -1z"/>
<path d="M420 2012 c-115 -116 -174 -273 -151 -397 15 -80 54 -148 129 -224
113 -114 241 -189 488 -285 171 -66 230 -95 310 -152 151 -107 211 -267 155
-414 -11 -27 -15 -50 -11 -50 4 0 39 33 77 74 190 203 197 418 22 610 -100
109 -224 182 -483 286 -160 63 -215 91 -292 146 -124 88 -198 209 -198 324 0
36 7 84 16 108 9 23 13 42 10 42 -4 0 -36 -30 -72 -68z"/>
<path d="M715 1103 c6 -6 46 -34 90 -64 159 -105 223 -185 232 -288 7 -77 -9
-121 -62 -170 -62 -57 -130 -76 -275 -76 -120 0 -216 17 -306 55 l-49 20 52
-48 c96 -88 232 -151 380 -177 227 -40 378 6 446 135 26 50 29 62 25 135 -7
132 -62 206 -230 316 -87 56 -325 183 -303 162z"/>
</g>
</svg>
