<?xml version="1.0" standalone="no"?>
<!DOCTYPE svg PUBLIC "-//W3C//DTD SVG 20010904//EN"
 "http://www.w3.org/TR/2001/REC-SVG-20010904/DTD/svg10.dtd">
<svg version="1.0" xmlns="http://www.w3.org/2000/svg"
 width="276.000000pt" height="280.000000pt" viewBox="0 0 276.000000 280.000000"
 preserveAspectRatio="xMidYMid meet">

<g transform="translate(0.000000,280.000000) scale(0.100000,-0.100000)"
fill="#000000" stroke="none">
<path d="M877 2519 c-293 -34 -538 -245 -618 -534 -31 -112 -31 -270 0 -379
37 -132 93 -229 191 -327 71 -71 101 -93 180 -132 166 -82 157 -80 666 -85
l451 -3 103 140 c57 78 107 141 111 141 17 0 84 -88 113 -149 29 -62 31 -73
31 -176 -1 -90 -5 -120 -23 -165 -44 -110 -154 -213 -272 -255 -52 -18 -90
-20 -710 -23 l-656 -3 -13 -22 c-8 -11 -50 -71 -95 -131 -46 -61 -86 -117 -90
-124 -11 -19 1699 -12 1759 6 155 49 248 103 346 201 161 161 238 382 209 599
-37 283 -211 503 -478 603 l-87 33 -368 6 c-203 3 -372 3 -376 0 -7 -4 -90
-116 -179 -240 l-33 -45 368 -5 c352 -5 370 -6 423 -27 30 -13 69 -32 85 -43
l30 -20 -450 0 c-449 0 -450 0 -518 24 -97 35 -179 102 -231 191 -67 114 -75
278 -19 398 44 93 118 169 212 215 l75 37 485 3 486 3 65 91 c36 51 82 114
103 142 20 28 37 54 37 58 0 10 -1224 8 -1313 -3z m1023 -64 c0 -3 -25 -39
-55 -80 l-56 -75 -433 0 c-246 0 -457 -4 -487 -10 -84 -16 -196 -76 -260 -140
-264 -263 -161 -705 196 -836 45 -17 95 -19 458 -24 l407 -5 -56 -77 -56 -78
-332 0 c-364 0 -413 6 -529 58 -204 93 -338 261 -383 483 -62 308 114 625 412
741 40 15 97 32 126 37 55 9 1048 15 1048 6z m144 -22 c-9 -16 -35 -52 -56
-80 -34 -46 -43 -53 -73 -53 -19 0 -35 2 -35 5 0 3 25 39 55 80 51 69 59 75
92 75 l35 0 -18 -27z m-1279 -287 c-194 -198 -194 -505 0 -704 70 -71 54 -73
-46 -6 -71 47 -114 101 -157 191 -24 52 -27 69 -27 168 0 103 2 114 32 178 41
86 119 168 196 207 33 16 61 30 62 30 2 0 -25 -29 -60 -64z m1116 -502 c266
-94 441 -322 456 -594 18 -320 -190 -600 -505 -681 -71 -18 -116 -19 -764 -19
-378 0 -688 3 -688 6 0 3 24 39 53 80 l52 74 630 0 c682 0 687 0 795 55 27 14
78 52 113 85 178 166 207 443 68 648 -48 72 -101 119 -181 161 -98 52 -162 61
-468 61 l-272 0 57 80 58 81 255 -3 c255 -4 255 -4 341 -34z m291 -61 c134
-79 243 -215 294 -369 25 -78 29 -104 29 -204 0 -127 -19 -202 -77 -312 -57
-108 -180 -229 -281 -276 -59 -28 -67 -28 -31 0 361 270 404 779 94 1098 -36
37 -78 77 -95 88 -42 30 -3 16 67 -25z m-355 -307 c-3 -8 -27 -44 -53 -80 -44
-62 -50 -66 -86 -66 l-38 0 57 80 c52 72 61 80 92 80 24 0 32 -4 28 -14z"/>
</g>
</svg>
